# File created by Blade
# Date/Time:  Tue Jan 27 19:58:39 2015
#---------------------------------------------------------
:version 1.10
:name HOM
:units
  mass 1.0
  length 1.000000
  angle deg
:documentation
     Acclaim Skeleton File
:root
   axis xyz
   order TX TY TZ RX RY RZ
   position 0.000000 0.000000 0.000000
   orientation 0 0 0
:bonedata
   begin
      id 1
      name Spine_dum
      direction 0.000000 1.000000 0.000000
      length 6.116652
      axis 0.0 0.0 0.0 xyz
   end
   begin
      id 2
      name LeftUpLeg_dum
      direction 1.000000 0.000000 0.000000
      length 4.711765
      axis 0.0 0.0 0.0 xyz
   end
   begin
      id 3
      name RightUpLeg_dum
      direction -1.000000 0.000000 0.000000
      length 4.711765
      axis 0.0 0.0 0.0 xyz
   end
   begin
      id 4
      name Spine
      direction 0.000000 1.000000 0.000000
      length 0.000000
      axis 0.0 0.0 0.0 xyz
      dof rx ry rz
   end
   begin
      id 5
      name Spine_dum1
      direction 0.000000 1.000000 0.000000
      length 15.225563
      axis 0.0 0.0 0.0 xyz
   end
   begin
      id 6
      name Spine_dum2
      direction 0.000000 1.000000 0.000000
      length 8.977654
      axis 0.0 0.0 0.0 xyz
   end
   begin
      id 7
      name Spine_dum3
      direction 0.000000 1.000000 0.000000
      length 8.977654
      axis 0.0 0.0 0.0 xyz
   end
   begin
      id 8
      name Head
      direction 0.000000 1.000000 0.000000
      length 4.527550
      axis 0.0 0.0 0.0 xyz
      dof rx ry rz
   end
   begin
      id 9
      name LeftShoulder
      direction 1.000000 0.000000 0.000000
      length 7.110130
      axis 0.0 0.0 -90.0 xyz
      dof rx ry rz
   end
   begin
      id 10
      name LeftArm
      direction 1.000000 0.000000 0.000000
      length 10.398341
      axis 0.0 0.0 -90.0 xyz
      dof rx ry rz
   end
   begin
      id 11
      name LeftForeArm
      direction 1.000000 0.000000 0.000000
      length 8.888997
      axis 0.0 0.0 -90.0 xyz
      dof ry rz rx
   end
   begin
      id 12
      name LeftHand
      direction 0.000000 0.000000 0.000000
      length 0.000000
      axis 0.0 0.0 -90.0 xyz
      dof rx ry rz
   end
   begin
      id 13
      name LeftHand_dum1
      direction 0.000000 0.000000 0.000000
      length 0.000000
      axis 0.0 0.0 -90.0 xyz
   end
   begin
      id 14
      name LeftHand_dum2
      direction 1.000000 0.000000 0.000000
      length 3.937000
      axis 0.0 0.0 -90.0 xyz
   end
   begin
      id 15
      name LeftHandThumb1
      direction 0.000000 0.000000 1.000000
      length 3.937000
      axis 0.0 0.0 -90.0 xyz
      dof rx rz ry
   end
   begin
      id 16
      name RightShoulder
      direction -1.000000 0.000000 0.000000
      length 7.110130
      axis 0.0 0.0 90.0 xyz
      dof rx ry rz
   end
   begin
      id 17
      name RightArm
      direction -1.000000 0.000000 0.000000
      length 10.398341
      axis 0.0 0.0 90.0 xyz
      dof rx ry rz
   end
   begin
      id 18
      name RightForeArm
      direction -1.000000 0.000000 0.000000
      length 8.888997
      axis 0.0 0.0 90.0 xyz
      dof ry rz rx
   end
   begin
      id 19
      name RightHand
      direction 0.000000 0.000000 0.000000
      length 0.000000
      axis 0.0 0.0 90.0 xyz
      dof rx ry rz
   end
   begin
      id 20
      name RightHand_dum1
      direction 0.000000 0.000000 0.000000
      length 0.000000
      axis 0.0 0.0 90.0 xyz
   end
   begin
      id 21
      name RightHand_dum2
      direction -1.000000 0.000000 0.000000
      length 3.937000
      axis 0.0 0.0 90.0 xyz
   end
   begin
      id 22
      name RightHandThumb1
      direction 0.000000 0.000000 1.000000
      length 3.937000
      axis 0.0 0.0 90.0 xyz
      dof rx rz ry
   end
   begin
      id 23
      name LeftUpLeg
      direction 0.000000 -1.000000 0.000000
      length 15.510451
      axis 0.0 0.0 0.0 xyz
      dof rx ry rz
   end
   begin
      id 24
      name LeftLeg
      direction 0.000000 -1.000000 0.000000
      length 14.858061
      axis 0.0 0.0 0.0 xyz
      dof rx ry rz
   end
   begin
      id 25
      name LeftFoot
      direction 0.000000 -0.258819 0.965926
      length 5.128852
      axis 15.0 0.0 0.0 xyz
      dof rx ry rz
   end
   begin
      id 26
      name LeftToeBase
      direction 0.000000 0.000000 1.000000
      length 2.952750
      axis 0.0 0.0 0.0 xyz
      dof rx ry rz
   end
   begin
      id 27
      name RightUpLeg
      direction 0.000000 -1.000000 0.000000
      length 15.510451
      axis 0.0 0.0 0.0 xyz
      dof rx ry rz
   end
   begin
      id 28
      name RightLeg
      direction 0.000000 -1.000000 0.000000
      length 14.858061
      axis 0.0 0.0 0.0 xyz
      dof rx ry rz
   end
   begin
      id 29
      name RightFoot
      direction 0.000000 -0.258819 0.965926
      length 5.128852
      axis 15.0 0.0 0.0 xyz
      dof rx ry rz
   end
   begin
      id 30
      name RightToeBase
      direction 0.000000 0.000000 1.000000
      length 2.952750
      axis 0.0 0.0 0.0 xyz
      dof rx ry rz
   end
:hierarchy
   begin
      root Spine_dum LeftUpLeg_dum RightUpLeg_dum
      Spine_dum Spine
      LeftUpLeg_dum LeftUpLeg
      RightUpLeg_dum RightUpLeg
      Spine Spine_dum1 Spine_dum2 Spine_dum3
      Spine_dum1 Head
      Spine_dum2 LeftShoulder
      Spine_dum3 RightShoulder
      LeftShoulder LeftArm
      LeftArm LeftForeArm
      LeftForeArm LeftHand
      LeftHand LeftHand_dum1 LeftHand_dum2
      LeftHand_dum1 LeftHandThumb1
      RightShoulder RightArm
      RightArm RightForeArm
      RightForeArm RightHand
      RightHand RightHand_dum1 RightHand_dum2
      RightHand_dum1 RightHandThumb1
      LeftUpLeg LeftLeg
      LeftLeg LeftFoot
      LeftFoot LeftToeBase
      RightUpLeg RightLeg
      RightLeg RightFoot
      RightFoot RightToeBase
   end

# File created by Blade
# Date/Time:  Tue Jan 27 19:58:31 2015
# Frame Rate: 120.000 fps
#------------------------------------------------------
:FULLY-SPECIFIED
:DEGREES
484
root 5.861878 33.540077 3.311639 -19.074275 42.324927 -19.684919
Spine 6.349732 -15.963901 11.073025
Head 0.893919 -23.352783 11.338813
LeftShoulder -13.425902 -0.919069 30.121651
LeftArm -8.490846 -5.387902 -86.549662
LeftForeArm -4.374112 -0.000000 110.172748
LeftHand 15.610408 0.000000 2.612120
LeftHandThumb1 -26.253704 0.000000 33.147579
RightShoulder -28.545259 -23.291849 -18.224675
RightArm 1.441828 -16.952374 98.964452
RightForeArm -7.641391 0.000000 16.595833
RightHand 17.000113 -0.000000 7.358105
RightHandThumb1 -24.326973 -0.000000 -32.862282
LeftUpLeg 9.521534 -3.784628 9.030012
LeftLeg 0.553131 -0.000000 -0.000000
LeftFoot -6.681541 -10.526095 -20.047216
LeftToeBase 33.346316 -0.000000 -0.000000
RightUpLeg -64.757231 15.258556 22.398580
RightLeg 143.531101 -0.000000 -0.000000
RightFoot 40.101253 -14.069367 16.493603
RightToeBase 2.310160 -0.000000 -0.000000
485
root 5.839812 33.557980 3.300240 -18.983843 42.117325 -19.905809
Spine 6.203515 -15.673516 11.332704
Head 0.619862 -23.410358 11.718196
LeftShoulder -13.388082 -0.871350 30.133150
LeftArm -8.427671 -5.331369 -86.591793
LeftForeArm -4.457914 -0.000000 110.192902
LeftHand 15.681961 -0.000000 2.632702
LeftHandThumb1 -26.253704 0.000000 33.147579
RightShoulder -28.584090 -23.184230 -18.140227
RightArm 1.457420 -16.967627 98.952027
RightForeArm -7.498223 0.000000 16.379240
RightHand 16.926130 -0.000000 7.141726
RightHandThumb1 -24.326973 -0.000000 -32.862282
LeftUpLeg 9.275251 -3.843873 9.252184
LeftLeg 0.592662 -0.000000 -0.000000
LeftFoot -6.767742 -10.338608 -20.047493
LeftToeBase 33.266178 -0.000000 -0.000000
RightUpLeg -64.348838 14.972413 23.098418
RightLeg 143.620267 -0.000000 -0.000000
RightFoot 42.986706 -11.269757 11.877066
RightToeBase -8.277137 -0.000000 0.000000
486
root 5.814048 33.573473 3.292781 -18.934746 41.925992 -20.135481
Spine 6.096038 -15.472401 11.536352
Head 0.406687 -23.416088 12.114693
LeftShoulder -13.358479 -0.855334 30.201887
LeftArm -8.458590 -5.345677 -86.625649
LeftForeArm -4.575048 -0.000000 110.242349
LeftHand 15.715641 -0.000000 2.549449
LeftHandThumb1 -26.253704 0.000000 33.147579
RightShoulder -28.526227 -23.095961 -18.073990
RightArm 1.481524 -16.863439 98.978856
RightForeArm -7.558461 -0.000000 16.177483
RightHand 16.896520 -0.000000 7.971246
RightHandThumb1 -24.326973 -0.000000 -32.862282
LeftUpLeg 9.047026 -3.880841 9.486097
LeftLeg 0.658847 -0.000000 -0.000000
LeftFoot -6.886764 -10.188427 -20.060682
LeftToeBase 33.308194 -0.000000 -0.000000
RightUpLeg -64.031685 14.752961 23.641706
RightLeg 143.578455 -0.000000 -0.000000
RightFoot 43.939453 -10.070484 10.036255
RightToeBase -13.064427 -0.000000 0.000000
487
root 5.791028 33.585464 3.284333 -18.864770 41.764763 -20.300656
Spine 6.012836 -15.312294 11.668032
Head 0.198153 -23.387156 12.487952
LeftShoulder -13.348022 -0.927483 30.279700
LeftArm -8.576298 -5.341207 -86.596933
LeftForeArm -4.697926 -0.000000 110.292282
LeftHand 15.811299 -0.000000 2.565149
LeftHandThumb1 -26.253704 0.000000 33.147579
RightShoulder -28.502186 -23.046348 -17.991484
RightArm 1.591823 -16.869108 98.999024
RightForeArm -7.520234 -0.000000 15.936930
RightHand 16.801413 -0.000000 7.517173
RightHandThumb1 -24.326973 -0.000000 -32.862282
LeftUpLeg 8.832784 -3.898586 9.667579
LeftLeg 0.734725 -0.000000 -0.000000
LeftFoot -6.979410 -10.081574 -20.104131
LeftToeBase 33.338746 -0.000000 -0.000000
RightUpLeg -63.817337 14.553491 23.999531
RightLeg 143.357671 -0.000000 -0.000000
RightFoot 44.025743 -9.720084 9.484028
RightToeBase -14.090168 -0.000000 0.000000
488
root 5.773212 33.592255 3.279629 -18.786695 41.638307 -20.353684
Spine 6.008970 -15.177603 11.639965
Head -0.019074 -23.334398 12.909021
LeftShoulder -13.319970 -0.838031 30.350858
LeftArm -8.544420 -5.380284 -86.534681
LeftForeArm -4.818354 0.000000 110.372704
LeftHand 15.891525 -0.000000 2.460974
LeftHandThumb1 -26.253704 0.000000 33.147579
RightShoulder -28.479145 -22.884080 -17.982789
RightArm 1.551886 -16.960596 99.097583
RightForeArm -7.432069 0.000000 15.659609
RightHand 16.908984 -0.000000 7.550150
RightHandThumb1 -24.326973 -0.000000 -32.862282
LeftUpLeg 8.701783 -3.936066 9.752010
LeftLeg 0.792651 -0.000000 -0.000000
LeftFoot -7.058795 -9.977049 -20.125252
LeftToeBase 33.364067 -0.000000 -0.000000
RightUpLeg -63.693814 14.409152 24.192852
RightLeg 143.009120 -0.000000 -0.000000
RightFoot 43.491859 -10.141681 10.365892
RightToeBase -14.767639 -0.000000 0.000000
489
root 5.747486 33.598483 3.270941 -18.661176 41.458466 -20.400710
Spine 5.983850 -15.023518 11.609143
Head -0.217307 -23.267709 13.348816
LeftShoulder -13.307394 -0.790860 30.426416
LeftArm -8.564682 -5.425152 -86.445179
LeftForeArm -4.894816 -0.000000 110.472792
LeftHand 15.975867 -0.000000 2.417987
LeftHandThumb1 -26.253704 0.000000 33.147579
RightShoulder -28.430499 -22.744917 -17.959100
RightArm 1.561513 -16.962693 99.207651
RightForeArm -7.337670 -0.000000 15.394147
RightHand 16.929342 -0.000000 7.192042
RightHandThumb1 -24.326973 -0.000000 -32.862282
LeftUpLeg 8.528032 -3.880801 9.869398
LeftLeg 0.852224 -0.000000 -0.000000
LeftFoot -7.098556 -9.942738 -20.165523
LeftToeBase 33.296130 -0.000000 -0.000000
RightUpLeg -63.587584 14.345117 24.404231
RightLeg 142.350849 -0.000000 -0.000000
RightFoot 43.416963 -10.618532 10.261023
RightToeBase -12.712601 -0.000000 0.000000
490
root 5.733376 33.598530 3.270059 -18.571330 41.349560 -20.339849
Spine 6.031869 -15.000543 11.426620
Head -0.319968 -23.158626 13.725895
LeftShoulder -13.342991 -0.681614 30.505489
LeftArm -8.559106 -5.429315 -86.309224
LeftForeArm -4.987122 0.000000 110.574125
LeftHand 15.999805 -0.000000 2.551659
LeftHandThumb1 -26.253704 0.000000 33.147579
RightShoulder -28.350306 -22.678652 -17.948197
RightArm 1.609138 -16.949737 99.328936
RightForeArm -7.297779 -0.000000 15.174282
RightHand 16.974070 -0.000000 7.128558
RightHandThumb1 -24.326973 -0.000000 -32.862282
LeftUpLeg 8.475601 -3.807882 9.876159
LeftLeg 0.900527 -0.000000 -0.000000
LeftFoot -7.127347 -9.938098 -20.152349
LeftToeBase 33.338482 -0.000000 -0.000000
RightUpLeg -63.598699 14.291301 24.355695
RightLeg 141.764538 -0.000000 -0.000000
RightFoot 41.845183 -11.822157 13.230142
RightToeBase -9.447729 -0.000000 0.000000
491
root 5.712212 33.596977 3.265063 -18.435026 41.196761 -20.239573
Spine 6.088611 -14.881199 11.211234
Head -0.435907 -23.093960 14.114783
LeftShoulder -13.348739 -0.603129 30.575478
LeftArm -8.512839 -5.401053 -86.143123
LeftForeArm -5.134547 -0.000000 110.691790
LeftHand 16.011498 0.000000 2.646046
LeftHandThumb1 -26.253704 0.000000 33.147579
RightShoulder -28.366815 -22.757384 -17.845497
RightArm 1.805331 -16.978271 99.441327
RightForeArm -7.441851 -0.000000 14.979011
RightHand 16.910876 0.000000 7.808629
RightHandThumb1 -24.326973 -0.000000 -32.862282
LeftUpLeg 8.401804 -3.709078 9.872650
LeftLeg 0.951549 -0.000000 -0.000000
LeftFoot -7.138091 -9.929522 -20.163672
LeftToeBase 33.249448 -0.000000 -0.000000
RightUpLeg -63.560785 14.254426 24.434799
RightLeg 140.981608 -0.000000 -0.000000
RightFoot 41.207187 -11.936716 13.839071
RightToeBase -6.314385 -0.000000 0.000000
492
root 5.694312 33.590989 3.261840 -18.271983 41.018788 -20.072222
Spine 6.147325 -14.764842 10.938328
Head -0.468397 -23.005325 14.441442
LeftShoulder -13.374399 -0.565625 30.678090
LeftArm -8.530708 -5.353023 -85.971035
LeftForeArm -5.311250 0.000000 110.798410
LeftHand 16.045767 -0.000000 2.745481
LeftHandThumb1 -26.253704 0.000000 33.147579
RightShoulder -28.314408 -22.720936 -17.867959
RightArm 1.811628 -17.032279 99.624877
RightForeArm -7.394700 -0.000000 14.829465
RightHand 16.911713 -0.000000 7.894784
RightHandThumb1 -24.326973 -0.000000 -32.862282
LeftUpLeg 8.379421 -3.595011 9.815106
LeftLeg 0.976119 -0.000000 -0.000000
LeftFoot -7.180710 -9.897493 -20.145301
LeftToeBase 33.220489 -0.000000 -0.000000
RightUpLeg -63.585266 14.309742 24.374431
RightLeg 140.062408 -0.000000 -0.000000
RightFoot 39.852812 -13.172691 15.653684
RightToeBase 0.068674 -0.000000 -0.000000
493
root 5.673336 33.584183 3.261815 -18.147112 40.864276 -19.931839
Spine 6.209658 -14.712978 10.660287
Head -0.426213 -22.905067 14.693377
LeftShoulder -13.416704 -0.558137 30.784769
LeftArm -8.580499 -5.303884 -85.784892
LeftForeArm -5.478949 0.000000 110.920544
LeftHand 16.060099 -0.000000 2.767510
LeftHandThumb1 -26.253704 0.000000 33.147579
RightShoulder -28.253390 -22.631379 -17.931649
RightArm 1.760525 -17.143001 99.824215
RightForeArm -7.286134 -0.000000 14.698336
RightHand 16.951948 -0.000000 7.818407
RightHandThumb1 -24.326973 -0.000000 -32.862282
LeftUpLeg 8.368352 -3.682276 9.748050
LeftLeg 1.006536 -0.000000 -0.000000
LeftFoot -7.314340 -9.694339 -20.150839
LeftToeBase 33.237596 -0.000000 -0.000000
RightUpLeg -63.586919 14.356928 24.373235
RightLeg 139.129850 -0.000000 -0.000000
RightFoot 39.023648 -13.348728 16.622654
RightToeBase 3.541051 -0.000000 -0.000000
494
root 5.656472 33.573199 3.263979 -17.981833 40.675614 -19.723744
Spine 6.254099 -14.611230 10.343558
Head -0.359587 -22.866997 14.919289
LeftShoulder -13.451441 -0.391266 30.880979
LeftArm -8.479197 -5.303495 -85.675826
LeftForeArm -5.617012 -0.000000 111.040706
LeftHand 16.046309 -0.000000 2.641523
LeftHandThumb1 -26.253704 0.000000 33.147579
RightShoulder -28.231293 -22.581004 -18.015562
RightArm 1.695558 -17.309557 100.030181
RightForeArm -7.198062 -0.000000 14.607353
RightHand 17.001096 -0.000000 7.698186
RightHandThumb1 -24.326973 -0.000000 -32.862282
LeftUpLeg 8.401098 -3.678032 9.648002
LeftLeg 0.998825 -0.000000 -0.000000
LeftFoot -7.398289 -9.560592 -20.186624
LeftToeBase 33.097015 -0.000000 -0.000000
RightUpLeg -63.630622 14.494159 24.235389
RightLeg 138.116451 -0.000000 -0.000000
RightFoot 37.275641 -14.730576 19.215099
RightToeBase 11.868801 -0.000000 -0.000000
